<svg width="20" height="20" viewBox="0 0 20 20" fill="none" xmlns="http://www.w3.org/2000/svg">
<mask id="mask0_2337_23421" style="mask-type:alpha" maskUnits="userSpaceOnUse" x="0" y="0" width="20" height="20">
<rect width="20" height="20" fill="#D9D9D9"/>
</mask>
<g mask="url(#mask0_2337_23421)">
<path d="M10.0026 19.166L4.0026 14.666C3.79427 14.5132 3.63108 14.3188 3.51302 14.0827C3.39497 13.8466 3.33594 13.5966 3.33594 13.3327V3.33268C3.33594 2.87435 3.49913 2.48199 3.82552 2.1556C4.15191 1.82921 4.54427 1.66602 5.0026 1.66602H15.0026C15.4609 1.66602 15.8533 1.82921 16.1797 2.1556C16.5061 2.48199 16.6693 2.87435 16.6693 3.33268V13.3327C16.6693 13.5966 16.6102 13.8466 16.4922 14.0827C16.3741 14.3188 16.2109 14.5132 16.0026 14.666L10.0026 19.166ZM10.0026 17.0827L15.0026 13.3327V3.33268H5.0026V13.3327L10.0026 17.0827ZM9.1276 12.4993L13.8359 7.79102L12.6693 6.58268L9.1276 10.1243L7.3776 8.37435L6.16927 9.54102L9.1276 12.4993Z" fill="#FB009C"/>
</g>
</svg>
