<svg width="20" height="20" viewBox="0 0 20 20" fill="none" xmlns="http://www.w3.org/2000/svg">
<mask id="mask0_4488_35066" style="mask-type:alpha" maskUnits="userSpaceOnUse" x="0" y="0" width="20" height="20">
<rect width="20" height="20" fill="#D9D9D9"/>
</mask>
<g mask="url(#mask0_4488_35066)">
<path d="M9.1849 18.2913C8.12934 18.1802 7.1467 17.892 6.23698 17.4268C5.32726 16.9615 4.53212 16.3573 3.85156 15.6143C3.17101 14.8712 2.63628 14.0205 2.2474 13.0622C1.85851 12.1038 1.66406 11.083 1.66406 9.99967C1.66406 7.81912 2.38976 5.94412 3.84115 4.37467C5.29253 2.80523 7.07378 1.91634 9.1849 1.70801V3.39551C7.53212 3.60384 6.14323 4.32954 5.01823 5.57259C3.89323 6.81565 3.33073 8.29134 3.33073 9.99967C3.33073 11.708 3.89323 13.1837 5.01823 14.4268C6.14323 15.6698 7.53212 16.3955 9.1849 16.6038V18.2913ZM9.1849 14.1663V9.02051L7.01823 11.1872L5.85156 9.99967L10.0182 5.83301L14.1849 9.99967L12.9974 11.1663L10.8516 9.02051V14.1663H9.1849ZM10.8516 18.2913V16.6038C11.4627 16.5344 12.0425 16.3816 12.5911 16.1455C13.1398 15.9094 13.6432 15.6108 14.1016 15.2497L15.2891 16.458C14.6641 16.958 13.9766 17.3677 13.2266 17.6872C12.4766 18.0066 11.6849 18.208 10.8516 18.2913ZM14.0807 4.74967C13.6224 4.38856 13.1224 4.08995 12.5807 3.85384C12.0391 3.61773 11.4627 3.46495 10.8516 3.39551V1.70801C11.6849 1.79134 12.4766 1.99273 13.2266 2.31217C13.9766 2.63162 14.6641 3.04134 15.2891 3.54134L14.0807 4.74967ZM16.4557 15.2705L15.2682 14.083C15.6293 13.6247 15.9279 13.1212 16.1641 12.5726C16.4002 12.024 16.553 11.4441 16.6224 10.833H18.3099C18.2266 11.6663 18.0217 12.458 17.6953 13.208C17.3689 13.958 16.9557 14.6455 16.4557 15.2705ZM16.6224 9.16634C16.553 8.55523 16.4002 7.97537 16.1641 7.42676C15.9279 6.87815 15.6293 6.37467 15.2682 5.91634L16.4557 4.72884C16.9557 5.35384 17.3689 6.04134 17.6953 6.79134C18.0217 7.54134 18.2266 8.33301 18.3099 9.16634H16.6224Z" fill="#D11288"/>
</g>
</svg>
