<svg width="20" height="20" viewBox="0 0 20 20" fill="none" xmlns="http://www.w3.org/2000/svg">
<mask id="mask0_4488_35018" style="mask-type:alpha" maskUnits="userSpaceOnUse" x="0" y="0" width="20" height="20">
<rect width="20" height="20" fill="#D9D9D9"/>
</mask>
<g mask="url(#mask0_4488_35018)">
<path d="M3.33073 10.8329V12.4996H16.6641V10.8329H3.33073ZM3.33073 1.66626H16.6641C17.1224 1.66626 17.5148 1.82945 17.8411 2.15584C18.1675 2.48223 18.3307 2.87459 18.3307 3.33293V12.4996C18.3307 12.9579 18.1675 13.3503 17.8411 13.6767C17.5148 14.0031 17.1224 14.1663 16.6641 14.1663H13.3307V18.3329L9.99739 16.6663L6.66406 18.3329V14.1663H3.33073C2.8724 14.1663 2.48003 14.0031 2.15365 13.6767C1.82726 13.3503 1.66406 12.9579 1.66406 12.4996V3.33293C1.66406 2.87459 1.82726 2.48223 2.15365 2.15584C2.48003 1.82945 2.8724 1.66626 3.33073 1.66626ZM3.33073 8.33293H16.6641V3.33293H3.33073V8.33293Z" fill="#D11288"/>
</g>
</svg>
