<svg width="20" height="20" viewBox="0 0 20 20" fill="none" xmlns="http://www.w3.org/2000/svg">
<mask id="mask0_4488_35026" style="mask-type:alpha" maskUnits="userSpaceOnUse" x="0" y="0" width="20" height="20">
<rect width="20" height="20" fill="#D9D9D9"/>
</mask>
<g mask="url(#mask0_4488_35026)">
<path d="M0.835938 16.6671V14.3337C0.835938 13.8615 0.957465 13.4275 1.20052 13.0317C1.44358 12.6358 1.76649 12.3337 2.16927 12.1254C3.03038 11.6949 3.90538 11.3719 4.79427 11.1567C5.68316 10.9414 6.58594 10.8337 7.5026 10.8337C8.41927 10.8337 9.32205 10.9414 10.2109 11.1567C11.0998 11.3719 11.9748 11.6949 12.8359 12.1254C13.2387 12.3337 13.5616 12.6358 13.8047 13.0317C14.0477 13.4275 14.1693 13.8615 14.1693 14.3337V16.6671H0.835938ZM15.8359 16.6671V14.1671C15.8359 13.556 15.6658 12.9692 15.3255 12.4067C14.9852 11.8442 14.5026 11.3615 13.8776 10.9587C14.5859 11.0421 15.2526 11.1844 15.8776 11.3858C16.5026 11.5872 17.0859 11.8337 17.6276 12.1254C18.1276 12.4032 18.5096 12.7122 18.7734 13.0525C19.0373 13.3928 19.1693 13.7643 19.1693 14.1671V16.6671H15.8359ZM7.5026 10.0004C6.58594 10.0004 5.80122 9.67402 5.14844 9.02124C4.49566 8.36846 4.16927 7.58374 4.16927 6.66707C4.16927 5.75041 4.49566 4.96568 5.14844 4.31291C5.80122 3.66013 6.58594 3.33374 7.5026 3.33374C8.41927 3.33374 9.20399 3.66013 9.85677 4.31291C10.5096 4.96568 10.8359 5.75041 10.8359 6.66707C10.8359 7.58374 10.5096 8.36846 9.85677 9.02124C9.20399 9.67402 8.41927 10.0004 7.5026 10.0004ZM15.8359 6.66707C15.8359 7.58374 15.5096 8.36846 14.8568 9.02124C14.204 9.67402 13.4193 10.0004 12.5026 10.0004C12.3498 10.0004 12.1554 9.98305 11.9193 9.94832C11.6832 9.9136 11.4887 9.87541 11.3359 9.83374C11.7109 9.3893 11.9991 8.89624 12.2005 8.35457C12.4019 7.81291 12.5026 7.25041 12.5026 6.66707C12.5026 6.08374 12.4019 5.52124 12.2005 4.97957C11.9991 4.43791 11.7109 3.94485 11.3359 3.50041C11.5304 3.43096 11.7248 3.38582 11.9193 3.36499C12.1137 3.34416 12.3082 3.33374 12.5026 3.33374C13.4193 3.33374 14.204 3.66013 14.8568 4.31291C15.5096 4.96568 15.8359 5.75041 15.8359 6.66707ZM2.5026 15.0004H12.5026V14.3337C12.5026 14.181 12.4644 14.0421 12.388 13.9171C12.3116 13.7921 12.2109 13.6949 12.0859 13.6254C11.3359 13.2504 10.579 12.9692 9.81511 12.7817C9.05122 12.5942 8.28038 12.5004 7.5026 12.5004C6.72483 12.5004 5.95399 12.5942 5.1901 12.7817C4.42622 12.9692 3.66927 13.2504 2.91927 13.6254C2.79427 13.6949 2.69358 13.7921 2.61719 13.9171C2.5408 14.0421 2.5026 14.181 2.5026 14.3337V15.0004ZM7.5026 8.33374C7.96094 8.33374 8.3533 8.17055 8.67969 7.84416C9.00608 7.51777 9.16927 7.12541 9.16927 6.66707C9.16927 6.20874 9.00608 5.81638 8.67969 5.48999C8.3533 5.1636 7.96094 5.00041 7.5026 5.00041C7.04427 5.00041 6.65191 5.1636 6.32552 5.48999C5.99913 5.81638 5.83594 6.20874 5.83594 6.66707C5.83594 7.12541 5.99913 7.51777 6.32552 7.84416C6.65191 8.17055 7.04427 8.33374 7.5026 8.33374Z" fill="#D11288"/>
</g>
</svg>
