<svg width="20" height="20" viewBox="0 0 20 20" fill="none" xmlns="http://www.w3.org/2000/svg">
<mask id="mask0_4488_35038" style="mask-type:alpha" maskUnits="userSpaceOnUse" x="0" y="0" width="20" height="20">
<rect width="19.8942" height="20" fill="#D9D9D9"/>
</mask>
<g mask="url(#mask0_4488_35038)">
<path d="M9.94389 10.0007C9.03208 10.0007 8.25151 9.67426 7.60218 9.02148C6.95286 8.36871 6.6282 7.58398 6.6282 6.66732C6.6282 5.75065 6.95286 4.96593 7.60218 4.31315C8.25151 3.66037 9.03208 3.33398 9.94389 3.33398C10.8557 3.33398 11.6363 3.66037 12.2856 4.31315C12.9349 4.96593 13.2596 5.75065 13.2596 6.66732C13.2596 7.58398 12.9349 8.36871 12.2856 9.02148C11.6363 9.67426 10.8557 10.0007 9.94389 10.0007ZM3.3125 16.6673V14.334C3.3125 13.8618 3.43338 13.4277 3.67515 13.0319C3.91692 12.6361 4.23813 12.334 4.63878 12.1257C5.49533 11.6951 6.3657 11.3722 7.24989 11.1569C8.13408 10.9416 9.03208 10.834 9.94389 10.834C10.8557 10.834 11.7537 10.9416 12.6379 11.1569C13.5221 11.3722 14.3925 11.6951 15.249 12.1257C15.6497 12.334 15.9709 12.6361 16.2126 13.0319C16.4544 13.4277 16.5753 13.8618 16.5753 14.334V16.6673H3.3125ZM4.97035 15.0007H14.9174V14.334C14.9174 14.1812 14.8794 14.0423 14.8035 13.9173C14.7275 13.7923 14.6273 13.6951 14.503 13.6257C13.7569 13.2507 13.004 12.9694 12.2442 12.7819C11.4843 12.5944 10.7176 12.5007 9.94389 12.5007C9.17023 12.5007 8.40348 12.5944 7.64363 12.7819C6.88378 12.9694 6.13084 13.2507 5.38481 13.6257C5.26047 13.6951 5.16031 13.7923 5.08433 13.9173C5.00834 14.0423 4.97035 14.1812 4.97035 14.334V15.0007ZM9.94389 8.33398C10.3998 8.33398 10.7901 8.17079 11.1147 7.8444C11.4394 7.51801 11.6017 7.12565 11.6017 6.66732C11.6017 6.20898 11.4394 5.81662 11.1147 5.49023C10.7901 5.16385 10.3998 5.00065 9.94389 5.00065C9.48798 5.00065 9.0977 5.16385 8.77304 5.49023C8.44838 5.81662 8.28604 6.20898 8.28604 6.66732C8.28604 7.12565 8.44838 7.51801 8.77304 7.8444C9.0977 8.17079 9.48798 8.33398 9.94389 8.33398Z" fill="#D11288"/>
</g>
</svg>
