<svg width="20" height="20" viewBox="0 0 20 20" fill="none" xmlns="http://www.w3.org/2000/svg">
<mask id="mask0_4488_35011" style="mask-type:alpha" maskUnits="userSpaceOnUse" x="0" y="0" width="20" height="20">
<rect width="20" height="20" fill="#D9D9D9"/>
</mask>
<g mask="url(#mask0_4488_35011)">
<path d="M5 18.3329C4.30556 18.3329 3.71528 18.0899 3.22917 17.6038C2.74306 17.1176 2.5 16.5274 2.5 15.8329V13.3329H5V1.66626L6.25 2.91626L7.5 1.66626L8.75 2.91626L10 1.66626L11.25 2.91626L12.5 1.66626L13.75 2.91626L15 1.66626L16.25 2.91626L17.5 1.66626V15.8329C17.5 16.5274 17.2569 17.1176 16.7708 17.6038C16.2847 18.0899 15.6944 18.3329 15 18.3329H5ZM15 16.6663C15.2361 16.6663 15.434 16.5864 15.5938 16.4267C15.7535 16.267 15.8333 16.069 15.8333 15.8329V4.16626H6.66667V13.3329H14.1667V15.8329C14.1667 16.069 14.2465 16.267 14.4062 16.4267C14.566 16.5864 14.7639 16.6663 15 16.6663ZM7.5 7.49959V5.83293H12.5V7.49959H7.5ZM7.5 9.99959V8.33293H12.5V9.99959H7.5ZM14.1667 7.49959C13.9306 7.49959 13.7326 7.41973 13.5729 7.26001C13.4132 7.10029 13.3333 6.90237 13.3333 6.66626C13.3333 6.43015 13.4132 6.23223 13.5729 6.07251C13.7326 5.91279 13.9306 5.83293 14.1667 5.83293C14.4028 5.83293 14.6007 5.91279 14.7604 6.07251C14.9201 6.23223 15 6.43015 15 6.66626C15 6.90237 14.9201 7.10029 14.7604 7.26001C14.6007 7.41973 14.4028 7.49959 14.1667 7.49959ZM14.1667 9.99959C13.9306 9.99959 13.7326 9.91973 13.5729 9.76001C13.4132 9.60029 13.3333 9.40237 13.3333 9.16626C13.3333 8.93015 13.4132 8.73223 13.5729 8.57251C13.7326 8.41279 13.9306 8.33293 14.1667 8.33293C14.4028 8.33293 14.6007 8.41279 14.7604 8.57251C14.9201 8.73223 15 8.93015 15 9.16626C15 9.40237 14.9201 9.60029 14.7604 9.76001C14.6007 9.91973 14.4028 9.99959 14.1667 9.99959ZM5 16.6663H12.5V14.9996H4.16667V15.8329C4.16667 16.069 4.24653 16.267 4.40625 16.4267C4.56597 16.5864 4.76389 16.6663 5 16.6663Z" fill="#D11288"/>
</g>
</svg>
