<svg width="20" height="20" viewBox="0 0 20 20" fill="none" xmlns="http://www.w3.org/2000/svg">
<mask id="mask0_4488_34998" style="mask-type:alpha" maskUnits="userSpaceOnUse" x="0" y="0" width="20" height="20">
<rect width="20" height="20" fill="#D9D9D9"/>
</mask>
<g mask="url(#mask0_4488_34998)">
<path d="M12.5 17.4996H17.5V16.8121C17.1528 16.4926 16.7639 16.2496 16.3333 16.0829C15.9028 15.9163 15.4583 15.8329 15 15.8329C14.5417 15.8329 14.0972 15.9163 13.6667 16.0829C13.2361 16.2496 12.8472 16.4926 12.5 16.8121V17.4996ZM15 14.9996C15.3472 14.9996 15.6424 14.8781 15.8854 14.635C16.1285 14.392 16.25 14.0968 16.25 13.7496C16.25 13.4024 16.1285 13.1072 15.8854 12.8642C15.6424 12.6211 15.3472 12.4996 15 12.4996C14.6528 12.4996 14.3576 12.6211 14.1146 12.8642C13.8715 13.1072 13.75 13.4024 13.75 13.7496C13.75 14.0968 13.8715 14.392 14.1146 14.635C14.3576 14.8781 14.6528 14.9996 15 14.9996ZM10.0417 7.08293C9.23611 7.08293 8.54861 7.36765 7.97917 7.93709C7.40972 8.50654 7.125 9.19404 7.125 9.99959C7.125 10.6663 7.3125 11.2496 7.6875 11.7496C8.0625 12.2496 8.55556 12.5968 9.16667 12.7913C9.16667 12.4718 9.17014 12.1663 9.17708 11.8746C9.18403 11.5829 9.24306 11.319 9.35417 11.0829C9.15972 10.9718 9.01736 10.819 8.92708 10.6246C8.83681 10.4301 8.79167 10.2218 8.79167 9.99959C8.79167 9.65237 8.9132 9.35723 9.15625 9.11418C9.39931 8.87112 9.69445 8.74959 10.0417 8.74959C10.25 8.74959 10.4479 8.80168 10.6354 8.90584C10.8229 9.01001 10.9792 9.15237 11.1042 9.33293C11.2569 9.26348 11.4167 9.21487 11.5833 9.18709C11.75 9.15932 11.9167 9.14543 12.0833 9.14543H12.8333C12.6528 8.5482 12.309 8.05515 11.8021 7.66626C11.2951 7.27737 10.7083 7.08293 10.0417 7.08293ZM7.70833 18.3329L7.375 15.6663C7.19445 15.5968 7.02431 15.5135 6.86458 15.4163C6.70486 15.319 6.54861 15.2149 6.39583 15.1038L3.91667 16.1454L1.625 12.1871L3.77083 10.5621C3.75694 10.4649 3.75 10.3711 3.75 10.2808V9.71834C3.75 9.62807 3.75694 9.53432 3.77083 9.43709L1.625 7.81209L3.91667 3.85376L6.39583 4.89543C6.54861 4.78432 6.70833 4.68015 6.875 4.58293C7.04167 4.4857 7.20833 4.40237 7.375 4.33293L7.70833 1.66626H12.2917L12.625 4.33293C12.8056 4.40237 12.9757 4.4857 13.1354 4.58293C13.2951 4.68015 13.4514 4.78432 13.6042 4.89543L16.0833 3.85376L18.375 7.81209L16.6042 9.16626H14.5C14.4861 9.09682 14.4722 9.0239 14.4583 8.94751C14.4444 8.87112 14.4236 8.7982 14.3958 8.72876L16.1875 7.37459L15.375 5.95793L13.3125 6.83293C13.0069 6.51348 12.6701 6.24612 12.3021 6.03084C11.934 5.81557 11.5347 5.65237 11.1042 5.54126L10.8333 3.33293H9.1875L8.89583 5.54126C8.46528 5.65237 8.06597 5.81557 7.69792 6.03084C7.32986 6.24612 6.99306 6.50654 6.6875 6.81209L4.625 5.95793L3.8125 7.37459L5.60417 8.70793C5.53472 8.91626 5.48611 9.12459 5.45833 9.33293C5.43056 9.54126 5.41667 9.76348 5.41667 9.99959C5.41667 10.2218 5.43056 10.4371 5.45833 10.6454C5.48611 10.8538 5.53472 11.0621 5.60417 11.2704L3.8125 12.6246L4.625 14.0413L6.6875 13.1663C7.02083 13.5135 7.39583 13.8051 7.8125 14.0413C8.22917 14.2774 8.68056 14.4301 9.16667 14.4996V18.3329H7.70833ZM12.0833 19.1663C11.7361 19.1663 11.441 19.0447 11.1979 18.8017C10.9549 18.5586 10.8333 18.2635 10.8333 17.9163V12.0829C10.8333 11.7357 10.9549 11.4406 11.1979 11.1975C11.441 10.9545 11.7361 10.8329 12.0833 10.8329H17.9167C18.2639 10.8329 18.559 10.9545 18.8021 11.1975C19.0451 11.4406 19.1667 11.7357 19.1667 12.0829V17.9163C19.1667 18.2635 19.0451 18.5586 18.8021 18.8017C18.559 19.0447 18.2639 19.1663 17.9167 19.1663H12.0833Z" fill="#D11288"/>
</g>
</svg>
