<svg width="20" height="20" viewBox="0 0 20 20" fill="none" xmlns="http://www.w3.org/2000/svg">
<mask id="mask0_4488_35051" style="mask-type:alpha" maskUnits="userSpaceOnUse" x="0" y="0" width="20" height="20">
<rect width="20" height="20" fill="#D9D9D9"/>
</mask>
<g mask="url(#mask0_4488_35051)">
<path d="M4.99479 18.3334C4.53646 18.3334 4.1441 18.1702 3.81771 17.8438C3.49132 17.5174 3.32812 17.1251 3.32812 16.6667V6.66675C3.32812 6.20841 3.49132 5.81605 3.81771 5.48966C4.1441 5.16328 4.53646 5.00008 4.99479 5.00008H6.66146C6.66146 4.08341 6.98785 3.29869 7.64062 2.64591C8.2934 1.99314 9.07812 1.66675 9.99479 1.66675C10.9115 1.66675 11.6962 1.99314 12.349 2.64591C13.0017 3.29869 13.3281 4.08341 13.3281 5.00008H14.9948C15.4531 5.00008 15.8455 5.16328 16.1719 5.48966C16.4983 5.81605 16.6615 6.20841 16.6615 6.66675V16.6667C16.6615 17.1251 16.4983 17.5174 16.1719 17.8438C15.8455 18.1702 15.4531 18.3334 14.9948 18.3334H4.99479ZM4.99479 16.6667H14.9948V6.66675H13.3281V8.33341C13.3281 8.56953 13.2483 8.76744 13.0885 8.92717C12.9288 9.08689 12.7309 9.16675 12.4948 9.16675C12.2587 9.16675 12.0608 9.08689 11.901 8.92717C11.7413 8.76744 11.6615 8.56953 11.6615 8.33341V6.66675H8.32812V8.33341C8.32812 8.56953 8.24826 8.76744 8.08854 8.92717C7.92882 9.08689 7.7309 9.16675 7.49479 9.16675C7.25868 9.16675 7.06076 9.08689 6.90104 8.92717C6.74132 8.76744 6.66146 8.56953 6.66146 8.33341V6.66675H4.99479V16.6667ZM8.32812 5.00008H11.6615C11.6615 4.54175 11.4983 4.14939 11.1719 3.823C10.8455 3.49661 10.4531 3.33341 9.99479 3.33341C9.53646 3.33341 9.1441 3.49661 8.81771 3.823C8.49132 4.14939 8.32812 4.54175 8.32812 5.00008Z" fill="#D11288"/>
</g>
</svg>
