<svg width="20" height="20" viewBox="0 0 20 20" fill="none" xmlns="http://www.w3.org/2000/svg">
<mask id="mask0_4488_35005" style="mask-type:alpha" maskUnits="userSpaceOnUse" x="0" y="0" width="20" height="20">
<rect width="20" height="20" fill="#D9D9D9"/>
</mask>
<g mask="url(#mask0_4488_35005)">
<path d="M14.4557 17.4996L11.4974 14.5413L12.6849 13.3746L14.4557 15.1454L17.9974 11.6038L19.1641 12.7913L14.4557 17.4996ZM11.2474 18.3329C9.7474 18.3329 8.46962 17.8051 7.41406 16.7496C6.35851 15.694 5.83073 14.4163 5.83073 12.9163V12.4371C4.63628 12.2426 3.64323 11.6836 2.85156 10.76C2.0599 9.8364 1.66406 8.74959 1.66406 7.49959V2.49959H4.16406V1.66626H5.83073V4.99959H4.16406V4.16626H3.33073V7.49959C3.33073 8.41626 3.65712 9.20098 4.3099 9.85376C4.96267 10.5065 5.7474 10.8329 6.66406 10.8329C7.58073 10.8329 8.36545 10.5065 9.01823 9.85376C9.67101 9.20098 9.9974 8.41626 9.9974 7.49959V4.16626H9.16406V4.99959H7.4974V1.66626H9.16406V2.49959H11.6641V7.49959C11.6641 8.74959 11.2682 9.8364 10.4766 10.76C9.6849 11.6836 8.69184 12.2426 7.4974 12.4371V12.9163C7.4974 13.9579 7.86198 14.8433 8.59115 15.5725C9.32031 16.3017 10.2057 16.6663 11.2474 16.6663V18.3329Z" fill="#D11288"/>
</g>
</svg>
