<svg width="20" height="20" viewBox="0 0 20 20" fill="none" xmlns="http://www.w3.org/2000/svg">
<mask id="mask0_4488_35059" style="mask-type:alpha" maskUnits="userSpaceOnUse" x="0" y="0" width="20" height="20">
<rect width="20" height="20" fill="#D9D9D9"/>
</mask>
<g mask="url(#mask0_4488_35059)">
<path d="M11.6641 5.83293V4.16626H18.3307V5.83293H11.6641ZM11.6641 9.16626V7.49959H18.3307V9.16626H11.6641ZM11.6641 12.4996V10.8329H18.3307V12.4996H11.6641ZM6.66406 11.6663C5.96962 11.6663 5.37934 11.4232 4.89323 10.9371C4.40712 10.451 4.16406 9.8607 4.16406 9.16626C4.16406 8.47182 4.40712 7.88154 4.89323 7.39543C5.37934 6.90932 5.96962 6.66626 6.66406 6.66626C7.35851 6.66626 7.94878 6.90932 8.43489 7.39543C8.92101 7.88154 9.16406 8.47182 9.16406 9.16626C9.16406 9.8607 8.92101 10.451 8.43489 10.9371C7.94878 11.4232 7.35851 11.6663 6.66406 11.6663ZM1.66406 16.6663V15.0829C1.66406 14.7913 1.73351 14.5135 1.8724 14.2496C2.01128 13.9857 2.20573 13.7774 2.45573 13.6246C3.08073 13.2496 3.74392 12.9683 4.44531 12.7808C5.1467 12.5933 5.88628 12.4996 6.66406 12.4996C7.44184 12.4996 8.18142 12.5933 8.88281 12.7808C9.5842 12.9683 10.2474 13.2496 10.8724 13.6246C11.1224 13.7774 11.3168 13.9857 11.4557 14.2496C11.5946 14.5135 11.6641 14.7913 11.6641 15.0829V16.6663H1.66406ZM3.45573 14.9996H9.87239C9.38628 14.7218 8.87239 14.5135 8.33073 14.3746C7.78906 14.2357 7.23351 14.1663 6.66406 14.1663C6.09462 14.1663 5.53906 14.2357 4.9974 14.3746C4.45573 14.5135 3.94184 14.7218 3.45573 14.9996ZM6.66406 9.99959C6.90017 9.99959 7.09809 9.91973 7.25781 9.76001C7.41753 9.60029 7.4974 9.40237 7.4974 9.16626C7.4974 8.93015 7.41753 8.73223 7.25781 8.57251C7.09809 8.41279 6.90017 8.33293 6.66406 8.33293C6.42795 8.33293 6.23003 8.41279 6.07031 8.57251C5.91059 8.73223 5.83073 8.93015 5.83073 9.16626C5.83073 9.40237 5.91059 9.60029 6.07031 9.76001C6.23003 9.91973 6.42795 9.99959 6.66406 9.99959Z" fill="#D11288"/>
</g>
</svg>
